<?xml version="1.0" encoding="UTF-8"?>
<svg width="16px" height="16px" viewBox="0 0 16 16" version="1.1" xmlns="http://www.w3.org/2000/svg" xmlns:xlink="http://www.w3.org/1999/xlink">
    <!-- Generator: Sketch 60.1 (88133) - https://sketch.com -->
    <title>矩形</title>
    <desc>Created with Sketch.</desc>
    <g id="页面-1" stroke="none" stroke-width="1" fill="none" fill-rule="evenodd">
        <g id="画板" fill="#FFFFFF" fill-rule="nonzero">
            <g id="首页" transform="translate(1.000000, 2.000000)">
                <path d="M12.075,10.9411765 C12.3654932,10.9411765 12.6,11.177654 12.6,11.4705882 C12.6,11.7635225 12.3654932,12 12.075,12 L1.75,12 C1.45950684,12 1.225,11.7635225 1.225,11.4705882 C1.225,11.177654 1.45950684,10.9411765 1.75,10.9411765 L12.075,10.9411765 Z M12.775,5.32907052e-15 C13.4504932,5.32907052e-15 14,0.55412454 14,1.23529412 L14,8.47058824 C14,9.15175781 13.4504932,9.70588235 12.775,9.70588235 L1.225,9.70588235 C0.549506836,9.70588235 1.1031176e-12,9.15175781 1.1031176e-12,8.47058824 L1.1031176e-12,1.23529412 C1.1031176e-12,0.55412454 0.549506836,5.32907052e-15 1.225,5.32907052e-15 L12.775,5.32907052e-15 Z M12.775,1.05882353 L1.225,1.05882353 C1.12875,1.05882353 1.05,1.13823529 1.05,1.23529412 L1.05,8.47058824 C1.05,8.56764706 1.12875,8.64705882 1.225,8.64705882 L12.775,8.64705882 C12.87125,8.64705882 12.95,8.56764706 12.95,8.47058824 L12.95,1.23529412 C12.95,1.13823529 12.87125,1.05882353 12.775,1.05882353 Z M2.8,5.21470588 C3.09049316,5.21470588 3.325,5.45118336 3.325,5.74411765 L3.325,7.05882353 C3.325,7.35175781 3.09049316,7.58823529 2.8,7.58823529 C2.50950684,7.58823529 2.275,7.35175781 2.275,7.05882353 L2.275,5.74411765 C2.275,5.45118336 2.50950684,5.21470588 2.8,5.21470588 Z M5.6,2.8782284 C5.89049316,2.8782284 6.125,3.11470588 6.125,3.40764017 L6.125,7.05882353 C6.125,7.35175781 5.89049316,7.58823529 5.6,7.58823529 C5.30950684,7.58823529 5.075,7.35175781 5.075,7.05882353 L5.075,3.40764017 C5.075,3.11470588 5.30950684,2.8782284 5.6,2.8782284 Z M11.025,2.29411765 C11.3154932,2.29411765 11.55,2.53059513 11.55,2.82352941 L11.55,7.05882353 C11.55,7.35175781 11.3154932,7.58823529 11.025,7.58823529 C10.7345068,7.58823529 10.5,7.35175781 10.5,7.05882353 L10.5,2.82352941 C10.5,2.53059513 10.7345068,2.29411765 11.025,2.29411765 Z M8.225,4.92352941 C8.51549316,4.92352941 8.75,5.16000689 8.75,5.45294118 L8.75,7.05882353 C8.75,7.35175781 8.51549316,7.58823529 8.225,7.58823529 C7.93450684,7.58823529 7.7,7.35175781 7.7,7.05882353 L7.7,5.45294118 C7.7,5.16000689 7.93450684,4.92352941 8.225,4.92352941 Z" id="形状结合"></path>
            </g>
        </g>
    </g>
</svg>