<svg xmlns="http://www.w3.org/2000/svg" width="32" height="32" viewBox="0 0 32 32">
  <g id="资源" transform="translate(-63.795 -60.518)">
    <rect id="矩形_768" data-name="矩形 768" width="32" height="32" rx="8" transform="translate(63.795 60.518)" fill="#e9ecff"/>
    <path id="路径_35" data-name="路径 35" d="M201.658,227.8l9.051,4.2a1.773,1.773,0,0,0,1.537-.016l8.828-4.338a1.784,1.784,0,0,0,.02-3.193l-8.744-4.436a1.792,1.792,0,0,0-1.606,0l-9.133,4.574a1.785,1.785,0,0,0,.047,3.215Zm19.349,5.777-9.538,4.934-9.778-4.776a1.14,1.14,0,1,0-1,2.048l9.835,4.8a2.16,2.16,0,0,0,1.935-.022l9.593-4.963a1.139,1.139,0,1,0-1.045-2.024Z" transform="translate(-131.42 -153.65)" fill="#6c6cea"/>
    <path id="路径_36" data-name="路径 36" d="M200.681,495.226l9.835,4.8a2.161,2.161,0,0,0,1.935-.022l9.593-4.963A1.141,1.141,0,0,0,221,493.019l-9.538,4.934-9.775-4.774a1.14,1.14,0,1,0-1,2.048Z" transform="translate(-131.411 -417.027)" fill="#6c6cea"/>
    <path id="路径_37" data-name="路径 37" d="M226.378,220.009l-9.135,4.574a1.785,1.785,0,0,0,.049,3.215l9.051,4.2a1.774,1.774,0,0,0,1.537-.016l6.649-3.265a13.638,13.638,0,0,0,.042-5.359l-6.587-3.342a1.792,1.792,0,0,0-1.606,0Z" transform="translate(-147.052 -153.649)" fill="#757bf2"/>
    <path id="路径_38" data-name="路径 38" d="M218.158,499.159l-6.687,3.46-9.78-4.776a1.14,1.14,0,1,0-1,2.048l9.835,4.8a2.16,2.16,0,0,0,1.935-.022l3.355-1.735A13.582,13.582,0,0,0,218.158,499.159Zm-7,7.243-9.471-4.626a1.14,1.14,0,1,0-1,2.048l7.305,3.567a13.411,13.411,0,0,0,3.167-.989Z" transform="translate(-131.42 -421.692)" fill="#757bf2"/>
    <path id="路径_39" data-name="路径 39" d="M215.434,221.577l-3.084-1.565a1.792,1.792,0,0,0-1.606,0l-9.133,4.574a1.785,1.785,0,0,0,.049,3.215l8.6,3.987a13.63,13.63,0,0,0,5.177-10.207Zm-7.085,11.474-6.658-3.251a1.14,1.14,0,1,0-1,2.048l4.83,2.359a13.444,13.444,0,0,0,2.829-1.156Zm-6.556,1.675a13.577,13.577,0,0,0,1.708-.111l-1.81-.883a1.14,1.14,0,0,0-1.525.523,1.126,1.126,0,0,0-.105.356A13.608,13.608,0,0,0,201.793,234.727Z" transform="translate(-131.42 -153.649)" fill="#8486f8"/>
    <path id="路径_40" data-name="路径 40" d="M226.378,220.04l-9.135,4.574a1.785,1.785,0,0,0,.049,3.215l2.113.979a13.683,13.683,0,0,0,7.763-8.955,1.793,1.793,0,0,0-.79.187Z" transform="translate(-147.052 -153.679)" fill="#8d92f8"/>
  </g>
</svg>
