<?xml version="1.0" standalone="no"?><!DOCTYPE svg PUBLIC "-//W3C//DTD SVG 1.1//EN" "http://www.w3.org/Graphics/SVG/1.1/DTD/svg11.dtd"><svg t="1650419521557" class="icon" viewBox="0 0 1024 1024" version="1.1" xmlns="http://www.w3.org/2000/svg" p-id="1426" xmlns:xlink="http://www.w3.org/1999/xlink" width="200" height="200"><defs><style type="text/css">@font-face { font-family: feedback-iconfont; src: url("//at.alicdn.com/t/font_1031158_u69w8yhxdu.woff2?t=1630033759944") format("woff2"), url("//at.alicdn.com/t/font_1031158_u69w8yhxdu.woff?t=1630033759944") format("woff"), url("//at.alicdn.com/t/font_1031158_u69w8yhxdu.ttf?t=1630033759944") format("truetype"); }
</style></defs><path d="M855.453711 1023.981715H168.810639a93.546707 93.546707 0 0 1-95.082658-91.425633V91.440261A93.546707 93.546707 0 0 1 168.810639 0.014628h686.862494a93.546707 93.546707 0 0 1 95.082658 91.425633v841.115821A93.473567 93.473567 0 0 1 855.453711 1023.981715zM702.736334 73.155134H321.235454v73.140506h381.50088z m171.733909 18.285127a18.72397 18.72397 0 0 0-19.089672-18.285127H779.021882v118.853323A28.085954 28.085954 0 0 1 750.350804 219.436147H273.547844a28.085954 28.085954 0 0 1-28.671078-27.42769V73.155134h-76.066127a18.72397 18.72397 0 0 0-19.089672 18.285127v841.115821a18.72397 18.72397 0 0 0 19.089672 18.285127h686.862494a18.72397 18.72397 0 0 0 19.089672-18.285127z m-362.557489 731.405062c-229.002925-103.640097-229.002925-213.277716-229.002925-365.702531a552.210822 552.210822 0 0 1 229.002925-109.710759 552.210822 552.210822 0 0 1 229.002925 109.710759c0.073141 152.351674 0.073141 262.062434-228.929785 365.702531z m0-402.272784a362.045506 362.045506 0 0 0-152.644237 75.992986c0 105.46861 0 181.461596 152.644237 253.139292 152.790517-71.750837 152.790517-147.743823 152.790517-253.212433A362.045506 362.045506 0 0 0 511.985894 420.572539z" p-id="1427"></path></svg>