<?xml version="1.0" standalone="no"?><!DOCTYPE svg PUBLIC "-//W3C//DTD SVG 1.1//EN" "http://www.w3.org/Graphics/SVG/1.1/DTD/svg11.dtd"><svg t="1651044393432" class="icon" viewBox="0 0 1024 1024" version="1.1" xmlns="http://www.w3.org/2000/svg" p-id="1536" xmlns:xlink="http://www.w3.org/1999/xlink" width="200" height="200"><defs><style type="text/css">@font-face { font-family: feedback-iconfont; src: url("//at.alicdn.com/t/font_1031158_u69w8yhxdu.woff2?t=1630033759944") format("woff2"), url("//at.alicdn.com/t/font_1031158_u69w8yhxdu.woff?t=1630033759944") format("woff"), url("//at.alicdn.com/t/font_1031158_u69w8yhxdu.ttf?t=1630033759944") format("truetype"); }
</style></defs><path d="M464.725333 266.752l206.506667 206.506667a54.869333 54.869333 0 0 1 0 77.568l-206.506667 206.506666a36.608 36.608 0 0 1-51.712-51.712L606.549333 512 413.013333 318.464a36.608 36.608 0 1 1 51.712-51.712z m155.136 232.362667zM512 950.869333A438.869333 438.869333 0 1 1 950.869333 512 439.381333 439.381333 0 0 1 512 950.869333M512 1024a512 512 0 1 0-512-512 512 512 0 0 0 512 512z" p-id="1537"></path></svg>