<svg xmlns="http://www.w3.org/2000/svg" width="14" height="14" viewBox="0 0 14 14">
  <path id="资源管理"
    d="M52.848,47.758h1.591a.318.318,0,0,1,.318.318v.636a.318.318,0,0,1-.318.318H52.848Zm0,2.545h1.591a.318.318,0,0,1,.318.318v.636a.318.318,0,0,1-.318.318H52.848ZM47.758,43.94V55.395h3.818V43.94Zm.636,2.227a.318.318,0,0,1,.318-.318h1.909a.318.318,0,0,1,.318.318V46.8a.318.318,0,0,1-.318.318H48.712a.318.318,0,0,1-.318-.318Zm0,2.545a.318.318,0,0,1,.318-.318h1.909a.318.318,0,0,1,.318.318v.636a.318.318,0,0,1-.318.318H48.712a.318.318,0,0,1-.318-.318Zm.636,4.773a.636.636,0,1,1,.636.636A.636.636,0,0,1,49.03,53.485Zm-4.455-2.864a.318.318,0,0,1,.318-.318h1.591v1.273H44.894a.318.318,0,0,1-.318-.318Zm0-2.545a.318.318,0,0,1,.318-.318h1.591V49.03H44.894a.318.318,0,0,1-.318-.318Zm8.273,7.319h2.545V45.213H52.848Zm0-11.455H56.03a.636.636,0,0,1,.636.636V56.03a.636.636,0,0,1-.636.636H43.3a.636.636,0,0,1-.636-.636V44.576a.636.636,0,0,1,.636-.636h3.182V43.3a.636.636,0,0,1,.636-.636h5.091a.636.636,0,0,1,.636.636v.637Zm-8.909,1.273V55.394h2.545V45.213H43.939Z"
    transform="translate(-42.667 -42.667)" fill="currentColor" />
</svg>