<?xml version="1.0" encoding="UTF-8"?>
<svg width="16px" height="16px" viewBox="0 0 16 16" version="1.1" xmlns="http://www.w3.org/2000/svg" xmlns:xlink="http://www.w3.org/1999/xlink">
    <!-- Generator: Sketch 60.1 (88133) - https://sketch.com -->
    <title>矩形</title>
    <desc>Created with Sketch.</desc>
    <g id="页面-1" stroke="none" stroke-width="1" fill="none" fill-rule="evenodd">
        <g id="画板" fill="#FFFFFF" fill-rule="nonzero">
            <g id="任务管理" transform="translate(2.000000, 1.000000)">
                <path d="M6.42320819,7.70000896 L4.49146758,9.74401134 L3.52901024,8.75001018 C3.39931741,8.63101004 3.20136519,8.63101004 3.07167235,8.75001018 C2.9556314,8.86901032 2.9556314,9.10001059 3.07167235,9.27501079 L4.2662116,10.5000122 C4.39590444,10.6190124 4.59385666,10.6190124 4.72354949,10.5000122 L6.88737201,8.22500957 C6.99658703,8.10600943 6.99658703,7.87500916 6.88054608,7.70000896 C6.75085324,7.58100882 6.55290102,7.58100882 6.42320819,7.70000896 Z M10.6962457,11.9630139 L9.89761092,11.9630139 L9.89761092,2.51300292 C9.89761092,1.81300211 9.38566553,1.34400156 8.70307167,1.34400156 L2.73037543,1.34400156 L2.73037543,1.2880015 C2.73037543,0.938001091 3.01706485,0.644000749 3.29692833,0.644000749 L10.6348123,0.644000749 C10.9761092,0.644000749 11.2627986,0.938001091 11.2627986,1.2880015 L11.2627986,11.3190132 C11.2627986,11.6690136 10.9761092,11.9630139 10.6962457,11.9630139 Z M0.682593857,4.25600495 L0.682593857,2.62500305 C0.682593857,2.27500265 0.969283276,1.98100231 1.24914676,1.98100231 L8.58703072,1.98100231 C8.92832765,1.98100231 9.15358362,2.27500265 9.15358362,2.62500305 L9.21501706,4.25600495 L0.682593857,4.25600495 Z M9.16040956,12.6560147 C9.16040956,13.0060151 8.87372014,13.3000155 8.59385666,13.3000155 L1.3105802,13.3000155 C0.969283276,13.3000155 0.744027304,13.0060151 0.744027304,12.6560147 L0.744027304,4.95600577 L9.27645051,4.95600577 L9.16040956,12.6560147 Z M10.7508532,0 L3.24232082,0 C2.61433447,0 2.10238908,0.581000676 2.10238908,1.16900136 L2.10238908,1.2880015 L1.19453925,1.2880015 C0.511945392,1.34400156 0,1.8060021 0,2.50600292 L0,12.7750149 C0.00682593857,13.4470156 0.539249147,13.9930163 1.19453925,14.0000163 L8.70307167,14.0000163 C9.33105802,14.0000163 9.89761092,13.4190156 9.89761092,12.8310149 L9.89761092,12.6560147 L10.8054608,12.6560147 C11.4334471,12.6560147 12,12.0750141 12,11.4870134 L12,1.16900136 C11.9453925,0.581000676 11.4334471,0 10.7508532,0 Z M7.62457338,3.44400401 L7.16723549,3.44400401 C6.98293515,3.43000399 6.83959044,3.28300382 6.82593857,3.0940036 C6.83959044,2.90500338 6.98293515,2.75800321 7.16723549,2.74400319 L7.62457338,2.74400319 C7.80887372,2.75800321 7.95221843,2.90500338 7.96587031,3.0940036 C8.02047782,3.32500387 7.84982935,3.44400401 7.62457338,3.44400401 Z M5.74744027,3.44400401 L1.87713311,3.44400401 C1.70648464,3.44400401 1.53583618,3.32500387 1.53583618,3.15000367 C1.54948805,2.96100345 1.69283276,2.81400327 1.87713311,2.80000326 L5.80204778,2.80000326 C5.98634812,2.81400327 6.12969283,2.96100345 6.14334471,3.15000367 C6.14334471,3.32500387 5.97269625,3.44400401 5.74744027,3.44400401 Z" id="形状"></path>
            </g>
        </g>
    </g>
</svg>